# xmcd
#
# Track frame offsets: 
#        150
#        25901
#        41620
#        61777
#        74552
#        85590
#        98514
#        105429
#        115449
#        125151
#        140943
#        150593
#        171243
#        181322
#        198846
#        216955
#
# Disc length: 3268 seconds
#
# Revision: 0
# Processed by: cddbd v1.5.2PL0 Copyright (c) Steve Scherf et al.
# Submitted via: ExactAudioCopy v1.0b1
#
DISCID=e10cc210
DTITLE=Stephen Aron - Chopin: Mazurkas arranged for solo guitar [CD 3 
DTITLE=of 3)
DYEAR=2000
DGENRE=Guitar
TTITLE0=Mazurka, piano, no. 36, a minor     Op. 59  No. 1 
TTITLE1=Mazurka, piano, no. 37, A-Flat Major     Op. 59  No. 2 
TTITLE2=Mazurka, piano, no. 38, f-sharp minor     Op. 59  No. 3 
TTITLE3=Mazurka, piano, no. 39, B Major     Op. 63  No. 1 
TTITLE4=Mazurka, piano, no. 40, f minor     Op. 63  No. 2
TTITLE5=Mazurka, piano, no. 41, c-sharp minor     Op. 63  No. 3
TTITLE6=Mazurka, piano, no. 42, G Major     Op. 67  No. 1 
TTITLE7=Mazurka, piano, no. 43, g minor   Cantabile  Op. 67  No. 2 
TTITLE8=Mazurka, piano, no. 44, C Major     Op. 67  No. 3
TTITLE9=Mazurka, piano, no. 45, a minor   Moderato animato  Op. 67  No
TTITLE9=4 
TTITLE10=Mazurka, piano, no. 46, C Major   Vivace  Op. 68  No. 1
TTITLE11=Mazurka, piano, no. 47, a minor   Lento  Op. 68  No. 2 
TTITLE12=Mazurka, piano, no. 48, F Major     Op. 68  No. 3
TTITLE13=Mazurka, piano, no. 49, f minor   Andantino  Op. 68  No. 4 
TTITLE14=Mazurka, piano, no. 51, a minor 
TTITLE15=Mazurka, piano, no. 50, a minor 
EXTD=
EXTT0=
EXTT1=
EXTT2=
EXTT3=
EXTT4=
EXTT5=
EXTT6=
EXTT7=
EXTT8=
EXTT9=
EXTT10=
EXTT11=
EXTT12=
EXTT13=
EXTT14=
EXTT15=
PLAYORDER=
